<svg width="560" height="380" viewBox="0 0 560 380" fill="none" xmlns="http://www.w3.org/2000/svg">
  <rect width="560" height="380" rx="28" fill="url(#paint0_linear)"/>
  <rect x="70" y="96" width="420" height="188" rx="26" stroke="#0D2447" stroke-width="3"/>
  <rect x="96" y="128" width="368" height="124" rx="18" fill="#F7FBFD" stroke="#2AA0B6" stroke-width="2"/>
  <rect x="112" y="144" width="126" height="92" rx="12" stroke="#0D2447" stroke-width="2"/>
  <path d="M128 168H222" stroke="#0D2447" stroke-width="2" stroke-linecap="round"/>
  <path d="M128 192H222" stroke="#0D2447" stroke-width="2" stroke-linecap="round"/>
  <path d="M128 216H196" stroke="#0D2447" stroke-width="2" stroke-linecap="round"/>
  <rect x="258" y="144" width="188" height="92" rx="12" stroke="#2AA0B6" stroke-width="2"/>
  <g stroke="#0D2447" stroke-width="2">
    <path d="M278 164H330" stroke-linecap="round"/>
    <path d="M278 186H330" stroke-linecap="round"/>
    <path d="M278 208H330" stroke-linecap="round"/>
  </g>
  <g fill="#2AA0B6">
    <rect x="350" y="162" width="16" height="16" rx="4"/>
    <rect x="374" y="162" width="16" height="16" rx="4"/>
    <rect x="398" y="162" width="16" height="16" rx="4"/>
    <rect x="422" y="162" width="16" height="16" rx="4"/>
    <rect x="350" y="190" width="16" height="16" rx="4"/>
    <rect x="374" y="190" width="16" height="16" rx="4"/>
    <rect x="398" y="190" width="16" height="16" rx="4"/>
    <rect x="422" y="190" width="16" height="16" rx="4"/>
  </g>
  <path d="M140 298H420" stroke="#0D2447" stroke-width="2.4" stroke-linecap="round" stroke-dasharray="8 10"/>
  <circle cx="170" cy="298" r="8" fill="#F9C970"/>
  <circle cx="280" cy="298" r="8" fill="#2AA0B6"/>
  <circle cx="390" cy="298" r="8" fill="#0D2447"/>
  <defs>
    <linearGradient id="paint0_linear" x1="28" y1="32" x2="498" y2="356" gradientUnits="userSpaceOnUse">
      <stop stop-color="#FFFFFF"/>
      <stop offset="1" stop-color="#DDF5F7"/>
    </linearGradient>
  </defs>
</svg>
